
<?xml version="1.0" standalone="no"?>
<!DOCTYPE svg PUBLIC "-//W3C//DTD SVG 20010904//EN"
 "http://www.w3.org/TR/2001/REC-SVG-20010904/DTD/svg10.dtd">
<svg version="1.0" xmlns="http://www.w3.org/2000/svg"
 width="1280.000000pt" height="740.000000pt" viewBox="0 0 1280.000000 740.000000"
 preserveAspectRatio="xMidYMid meet">
<g transform="translate(0.000000,740.000000) scale(0.100000,-0.100000)"
fill="#000000" stroke="none">
<path d="M8105 6900 c-664 -38 -1176 -370 -1449 -940 -85 -178 -98 -225 -99
-363 l-2 -119 210 -2 c224 -3 319 -16 414 -57 62 -26 117 -85 127 -134 7 -40
-8 -110 -36 -166 -11 -21 -20 -51 -20 -66 1 -40 33 -106 65 -131 55 -44 161
-20 219 48 37 44 40 69 21 152 -14 59 -15 81 -6 115 33 122 152 172 384 160
110 -6 223 -17 316 -33 l34 -5 -5 153 c-6 167 -20 223 -66 258 -31 25 -102 26
-179 4 -203 -59 -377 138 -300 338 25 63 93 123 165 144 58 17 82 15 212 -21
102 -28 126 -17 150 66 10 33 36 586 29 593 -11 11 -65 13 -184 6z"/>
<path d="M4560 6894 c-14 -2 -59 -9 -100 -15 -405 -58 -783 -270 -1031 -577
-181 -224 -326 -516 -400 -804 -11 -44 -18 -82 -16 -85 3 -2 63 1 133 8 203
19 456 17 534 -4 128 -35 199 -104 200 -193 0 -23 -14 -90 -31 -150 -37 -128
-39 -170 -11 -216 29 -47 75 -71 137 -71 64 0 98 21 119 74 23 56 20 95 -15
174 -17 39 -33 94 -36 122 -14 127 78 226 245 262 66 14 307 14 442 1 56 -6
105 -9 107 -6 7 6 17 63 37 198 18 120 13 181 -17 211 -27 27 -97 19 -202 -23
-54 -22 -103 -34 -152 -38 -64 -4 -79 -2 -128 22 -120 59 -170 212 -110 333
58 116 211 165 369 118 66 -19 164 -17 190 4 11 9 16 30 16 65 0 88 -55 425
-91 559 l-10 37 -77 -1 c-42 -1 -88 -3 -102 -5z"/>
<path d="M4852 6818 c38 -165 71 -393 72 -500 1 -104 0 -107 -27 -136 -50 -52
-164 -67 -277 -37 -119 32 -230 8 -271 -59 -42 -68 -11 -179 61 -217 48 -26
107 -24 187 7 163 62 228 69 294 32 84 -47 101 -156 60 -387 -11 -63 -19 -117
-16 -119 8 -8 304 -43 380 -44 92 -1 135 13 183 61 42 42 42 79 1 159 -63 122
-26 260 89 333 110 70 255 1 328 -154 29 -62 30 -101 6 -193 -10 -38 -16 -76
-15 -84 11 -49 105 -57 363 -33 l185 18 8 141 8 142 -34 89 c-151 391 -434
706 -792 882 -227 112 -504 180 -736 181 l-76 0 19 -82z"/>
<path d="M8380 6854 c0 -157 -23 -527 -35 -578 -36 -143 -104 -171 -292 -121
-110 28 -148 22 -204 -34 -112 -113 -1 -302 153 -260 145 38 221 29 284 -35
58 -60 76 -131 82 -323 4 -129 7 -153 21 -157 43 -14 347 -48 426 -49 112 -1
174 22 195 73 12 28 11 41 -3 95 -19 71 -15 108 19 177 55 109 131 163 220
156 89 -8 152 -65 195 -177 24 -66 24 -133 -1 -207 -12 -35 -18 -70 -15 -86
10 -42 75 -94 134 -107 103 -22 317 -6 449 34 46 14 52 19 47 38 -3 12 -12 56
-20 97 -37 179 -114 397 -200 565 -287 560 -761 883 -1382 941 l-73 7 0 -49z"/>
<path d="M5609 5810 c-66 -69 -70 -123 -15 -224 29 -55 34 -118 12 -169 -19
-45 -82 -102 -141 -129 -63 -28 -184 -28 -395 0 -93 12 -147 16 -151 9 -7 -11
-12 -51 -34 -281 -27 -284 -18 -358 47 -395 23 -13 30 -12 96 22 118 61 208
47 286 -45 36 -42 66 -118 66 -168 0 -83 -67 -182 -152 -224 -75 -38 -135 -35
-221 8 -79 40 -99 38 -135 -14 -33 -49 -45 -104 -46 -205 -1 -96 22 -325 34
-345 6 -10 52 -6 196 15 104 15 228 28 275 28 76 1 92 -2 144 -28 98 -49 125
-111 100 -225 -41 -188 -42 -198 -14 -249 28 -51 91 -91 144 -91 66 0 145 69
145 126 0 13 -16 62 -35 108 -19 47 -35 100 -35 119 0 65 31 129 90 189 91 91
165 104 412 71 70 -9 130 -14 133 -12 3 3 5 95 6 205 2 264 -16 330 -100 355
-34 10 -49 8 -121 -16 -185 -62 -332 1 -371 158 -30 121 33 243 155 298 56 25
144 24 226 -2 80 -26 106 -22 160 27 91 82 116 191 105 457 l-7 187 -32 0
c-17 0 -96 -7 -176 -15 -261 -26 -334 -19 -396 38 -49 45 -56 84 -31 184 27
111 20 140 -52 214 -50 52 -62 59 -96 59 -32 0 -45 -7 -76 -40z"/>
<path d="M9161 5675 c-21 -19 -49 -58 -61 -87 -22 -51 -22 -53 -5 -109 27 -89
15 -142 -44 -200 -32 -30 -63 -50 -97 -60 -68 -19 -226 -16 -404 10 -79 12
-152 21 -162 21 -16 0 -18 -13 -18 -142 1 -242 25 -339 98 -381 l33 -19 79 31
c43 17 97 31 120 31 57 0 128 -39 183 -100 97 -108 103 -245 15 -345 -69 -78
-166 -93 -318 -50 -75 21 -111 16 -145 -21 -34 -37 -63 -133 -75 -248 -12
-118 -3 -346 15 -346 6 0 51 9 101 20 114 25 225 26 279 1 78 -35 135 -131
119 -198 -4 -15 -20 -56 -36 -90 -31 -70 -33 -88 -16 -145 36 -119 174 -116
237 5 24 47 24 50 12 127 -16 96 -10 135 28 187 63 87 152 103 465 84 107 -7
193 -8 198 -3 16 16 115 247 157 367 90 256 142 505 161 775 11 145 5 346 -11
371 -6 11 -20 10 -71 -3 -174 -46 -420 -50 -516 -8 -62 27 -123 92 -140 148
-16 53 -15 63 8 129 27 77 25 128 -6 191 -48 97 -115 118 -183 57z"/>
<path d="M6606 5383 l-48 -4 7 -202 c5 -163 4 -216 -8 -274 -29 -136 -101
-246 -189 -291 -56 -27 -97 -28 -184 -1 -117 36 -202 11 -255 -75 -41 -67 -14
-163 57 -203 51 -30 103 -29 194 2 83 28 115 30 174 13 62 -19 111 -75 135
-153 19 -59 21 -93 21 -290 0 -223 0 -223 23 -228 12 -3 128 -22 257 -43 251
-39 380 -47 419 -25 22 12 23 17 17 74 -20 198 -20 200 5 252 34 72 117 151
180 169 87 26 168 -1 237 -79 74 -85 78 -161 16 -342 -20 -56 -33 -111 -30
-121 9 -26 50 -43 116 -49 45 -4 96 6 274 51 120 31 226 60 235 65 14 8 15 24
10 133 -11 222 14 414 66 503 65 112 143 137 289 94 100 -30 157 -23 204 25
35 34 37 40 37 99 0 76 -26 121 -94 167 -54 36 -83 37 -153 5 -71 -33 -109
-39 -155 -25 -136 44 -183 172 -183 497 0 79 -4 143 -8 143 -4 0 -62 7 -127
17 -66 9 -183 16 -260 17 -123 1 -146 -2 -186 -20 -66 -31 -77 -63 -54 -159
24 -105 3 -179 -70 -243 -55 -49 -94 -65 -171 -70 -57 -4 -78 -1 -111 16 -117
60 -159 202 -100 344 15 36 27 76 27 88 0 91 -287 148 -614 123z"/>
<path d="M3375 5344 c-22 -2 -114 -9 -205 -15 -91 -6 -170 -15 -176 -20 -22
-18 -39 -200 -38 -394 3 -343 64 -648 199 -996 69 -178 90 -217 118 -224 179
-43 374 -75 455 -75 144 0 147 5 111 157 -24 99 -21 160 10 220 74 144 245
164 357 41 71 -79 81 -147 37 -270 -22 -61 -25 -83 -18 -105 15 -42 74 -66
175 -71 84 -4 348 22 362 36 4 4 1 54 -7 112 -24 186 -28 263 -16 340 22 144
90 243 175 257 28 4 52 -2 112 -31 85 -40 110 -43 160 -20 114 54 135 185 44
268 -52 47 -88 47 -176 1 -76 -41 -115 -44 -166 -12 -74 45 -108 117 -108 231
0 57 33 457 43 526 3 21 -51 29 -259 36 -205 8 -279 -1 -357 -44 -87 -47 -95
-93 -41 -233 31 -80 36 -102 31 -150 -19 -211 -256 -291 -404 -137 -71 74 -79
156 -33 317 17 57 30 117 30 133 0 88 -176 140 -415 122z"/>
<path d="M3970 4004 c-64 -55 -71 -95 -40 -226 24 -101 25 -130 4 -174 -41
-87 -186 -101 -459 -45 -166 35 -165 35 -165 22 0 -18 133 -248 224 -386 165
-250 373 -513 613 -771 112 -121 437 -438 510 -499 l32 -26 11 38 c6 21 22 94
37 163 31 149 37 353 12 405 -20 43 -63 45 -146 6 -132 -62 -242 -27 -299 94
-28 60 -32 156 -8 213 33 81 137 152 221 152 24 0 72 -11 109 -25 36 -14 78
-25 93 -25 69 0 106 76 106 215 -1 91 -32 365 -45 385 -5 7 -45 6 -140 -6
-187 -23 -327 -17 -401 18 -105 48 -133 133 -85 253 36 90 34 135 -5 180 -61
70 -125 83 -179 39z"/>
<path d="M7400 3998 c-19 -13 -49 -43 -68 -68 -33 -42 -34 -47 -28 -110 3 -36
8 -102 12 -148 l7 -82 -37 -34 c-26 -25 -52 -38 -93 -46 -71 -15 -121 -11
-431 37 -209 32 -245 35 -253 22 -14 -21 -6 -466 10 -506 9 -22 23 -35 46 -43
30 -10 43 -7 112 22 134 57 236 41 339 -54 57 -52 83 -107 84 -171 0 -95 -62
-181 -157 -217 -70 -26 -111 -25 -206 5 -109 35 -158 34 -191 -5 -38 -46 -50
-102 -49 -225 2 -115 27 -333 40 -346 5 -4 42 -4 83 1 186 22 393 7 454 -34
68 -44 75 -105 27 -211 -38 -82 -41 -122 -13 -167 42 -67 121 -116 168 -104
58 15 133 114 134 176 0 14 -9 50 -21 80 -96 251 158 346 658 245 67 -14 157
-36 200 -50 128 -41 116 -62 110 213 -5 250 -12 292 -53 342 -36 43 -87 41
-170 -5 -102 -57 -185 -45 -260 37 -100 111 -106 280 -12 364 61 56 155 72
233 40 62 -26 119 -21 159 14 67 59 81 170 58 465 l-7 90 -30 -1 c-16 0 -111
-22 -210 -49 -152 -41 -195 -48 -275 -49 -80 -1 -102 3 -142 22 -96 47 -105
97 -49 266 22 68 41 139 41 156 0 111 -132 188 -220 128z"/>
<path d="M5983 3615 c-57 -29 -101 -83 -110 -138 -4 -27 3 -57 31 -125 41
-102 44 -139 15 -202 -27 -60 -54 -88 -114 -116 -90 -42 -185 -28 -262 40 -50
44 -93 123 -93 173 0 17 11 84 25 148 22 99 24 120 13 143 -20 42 -71 62 -158
62 -77 0 -440 -47 -451 -59 -4 -3 1 -66 11 -140 39 -283 36 -362 -16 -468 -50
-102 -138 -128 -265 -78 -80 31 -121 30 -174 -7 -47 -32 -65 -68 -65 -131 0
-40 6 -63 23 -88 44 -65 98 -74 179 -32 74 39 160 43 208 11 53 -35 72 -103
73 -253 0 -121 -17 -244 -52 -383 -11 -39 -16 -74 -13 -76 4 -2 61 7 127 20
66 13 194 29 285 34 205 13 233 20 251 62 11 27 10 43 -7 117 -29 128 -25 213
11 279 89 162 323 137 410 -43 23 -48 23 -125 1 -177 -28 -64 -22 -91 30 -137
55 -48 122 -71 208 -71 69 0 325 26 333 33 2 3 -3 63 -12 134 -41 313 -13 478
94 550 46 31 120 30 237 -4 84 -24 96 -25 138 -13 66 18 116 75 116 133 0 63
-36 109 -115 148 -74 36 -94 35 -210 -15 -93 -40 -162 -30 -214 29 -50 57 -55
87 -56 364 -2 206 -5 255 -16 261 -20 10 -253 40 -315 40 -34 0 -67 -8 -101
-25z"/>
<path d="M8515 3595 c-140 -30 -148 -34 -141 -63 3 -15 8 -117 12 -228 7 -187
6 -205 -14 -270 -12 -38 -35 -85 -52 -106 -61 -73 -163 -98 -259 -64 -72 26
-118 21 -156 -17 -63 -63 -55 -160 20 -234 53 -53 74 -54 161 -8 55 29 76 35
128 35 72 0 115 -22 153 -79 45 -67 55 -122 60 -358 3 -123 9 -223 14 -223 4
0 115 107 246 238 339 336 583 626 800 952 99 148 228 368 221 376 -3 2 -83 9
-179 15 -259 16 -331 4 -365 -63 -14 -27 -14 -40 -3 -108 10 -67 10 -83 -5
-131 -38 -119 -120 -189 -225 -189 -101 0 -179 68 -201 177 -14 66 -9 101 31
193 29 68 29 72 14 104 -30 64 -122 82 -260 51z"/>
<path d="M5590 2417 c-26 -9 -41 -24 -58 -57 -26 -51 -26 -90 3 -224 22 -99
10 -169 -36 -216 -41 -40 -76 -48 -274 -59 -159 -9 -374 -42 -405 -61 -11 -7
-10 -12 7 -27 389 -337 927 -758 1393 -1089 217 -155 251 -177 257 -170 13 13
54 326 56 426 2 122 -15 168 -69 182 -30 7 -40 5 -189 -38 -110 -32 -240 31
-291 141 -42 89 -27 171 43 246 94 101 203 126 321 75 55 -23 66 -25 89 -14
15 7 35 30 46 51 20 38 20 39 -2 180 -11 77 -24 144 -28 148 -5 4 -64 1 -133
-7 -167 -18 -285 -17 -347 1 -67 20 -139 70 -180 123 -40 53 -43 100 -13 188
23 66 20 94 -16 142 -43 56 -114 80 -174 59z"/>
<path d="M7545 1951 c-45 -11 -93 -39 -105 -60 -7 -14 -3 -39 16 -98 19 -58
24 -90 20 -126 -11 -98 -104 -215 -189 -238 -83 -22 -181 18 -247 101 -68 86
-77 163 -31 268 41 95 42 102 3 125 -25 15 -58 21 -140 24 -94 5 -308 -10
-320 -22 -2 -2 6 -69 18 -149 20 -136 20 -150 6 -199 -17 -58 -63 -112 -113
-133 -45 -19 -65 -18 -136 12 -80 34 -140 30 -199 -13 -98 -71 -103 -170 -13
-239 51 -39 117 -43 197 -13 138 52 234 25 285 -79 25 -51 28 -67 27 -157 0
-55 -11 -167 -23 -248 -12 -81 -21 -157 -19 -169 3 -17 37 4 238 148 504 359
987 736 1368 1068 57 49 99 93 95 97 -14 13 -232 68 -356 89 -120 20 -320 26
-382 11z"/>
</g>
</svg>
